<svg width="15" height="15" viewBox="0 0 15 15" fill="none" xmlns="http://www.w3.org/2000/svg">
<path d="M5.33203 6.99984H10.6654M7.9987 4.33317V9.6665M5.26536 12.3332C6.53775 12.9859 8.00142 13.1627 9.39262 12.8317C10.7838 12.5007 12.0111 11.6838 12.8532 10.528C13.6953 9.37222 14.097 7.95367 13.9858 6.52798C13.8745 5.10228 13.2578 3.76318 12.2466 2.752C11.2354 1.74081 9.89629 1.12404 8.47059 1.01281C7.04489 0.901589 5.62635 1.30323 4.47058 2.14537C3.31481 2.9875 2.49783 4.21474 2.16685 5.60594C1.83587 6.99714 2.01266 8.46082 2.66536 9.7332L1.33203 13.6665L5.26536 12.3332Z" stroke="#FAFAFA" stroke-width="1.2" stroke-linecap="round" stroke-linejoin="round"/>
</svg>
