<svg width="17" height="16" viewBox="0 0 17 16" fill="none" xmlns="http://www.w3.org/2000/svg">
<g clip-path="url(#clip0_2005_1066)">
<path d="M8.5 6.54541V9.6436H12.8054C12.6164 10.64 12.049 11.4836 11.1981 12.0509L13.7945 14.0655C15.3072 12.6691 16.18 10.6182 16.18 8.18185C16.18 7.61459 16.1291 7.06908 16.0345 6.5455L8.5 6.54541Z" fill="#4285F4"/>
<path d="M4.01674 9.52271L3.43116 9.97096L1.3584 11.5855C2.67476 14.1964 5.37274 16 8.49999 16C10.6599 16 12.4708 15.2873 13.7945 14.0655L11.1981 12.0509C10.4854 12.5309 9.57631 12.8219 8.49999 12.8219C6.42 12.8219 4.65278 11.4183 4.02001 9.52732L4.01674 9.52271Z" fill="#34A853"/>
<path d="M1.35812 4.41455C0.812695 5.49087 0.5 6.70543 0.5 7.99996C0.5 9.29448 0.812695 10.509 1.35812 11.5854C1.35812 11.5926 4.01998 9.51991 4.01998 9.51991C3.85998 9.03991 3.76541 8.53085 3.76541 7.99987C3.76541 7.46889 3.85998 6.95984 4.01998 6.47984L1.35812 4.41455Z" fill="#FBBC05"/>
<path d="M8.50015 3.18545C9.67835 3.18545 10.7256 3.59271 11.562 4.37818L13.8529 2.0873C12.4638 0.792777 10.6602 0 8.50015 0C5.3729 0 2.67476 1.79636 1.3584 4.41455L4.02018 6.48001C4.65287 4.58908 6.42016 3.18545 8.50015 3.18545Z" fill="#EA4335"/>
</g>
<defs>
<clipPath id="clip0_2005_1066">
<rect width="16" height="16" fill="white" transform="translate(0.5)"/>
</clipPath>
</defs>
</svg>
