<svg width="16" height="16" viewBox="0 0 16 16" fill="none" xmlns="http://www.w3.org/2000/svg">
<g clip-path="url(#clip0_80_4167)">
<path fill-rule="evenodd" clip-rule="evenodd" d="M8.00033 2.00008C4.68662 2.00008 2.00033 4.68637 2.00033 8.00008C2.00033 11.3138 4.68662 14.0001 8.00033 14.0001C11.314 14.0001 14.0003 11.3138 14.0003 8.00008C14.0003 4.68637 11.314 2.00008 8.00033 2.00008ZM0.666992 8.00008C0.666992 3.94999 3.95024 0.666748 8.00033 0.666748C12.0504 0.666748 15.3337 3.94999 15.3337 8.00008C15.3337 12.0502 12.0504 15.3334 8.00033 15.3334C3.95024 15.3334 0.666992 12.0502 0.666992 8.00008ZM7.33366 5.33341C7.33366 4.96522 7.63213 4.66675 8.00033 4.66675H8.00699C8.37518 4.66675 8.67366 4.96522 8.67366 5.33341C8.67366 5.7016 8.37518 6.00008 8.00699 6.00008H8.00033C7.63213 6.00008 7.33366 5.7016 7.33366 5.33341ZM8.00033 7.33341C8.36852 7.33341 8.66699 7.63189 8.66699 8.00008V10.6667C8.66699 11.0349 8.36852 11.3334 8.00033 11.3334C7.63213 11.3334 7.33366 11.0349 7.33366 10.6667V8.00008C7.33366 7.63189 7.63213 7.33341 8.00033 7.33341Z" fill="#18181B"/>
</g>
<defs>
<clipPath id="clip0_80_4167">
<rect width="16" height="16" fill="white"/>
</clipPath>
</defs>
</svg>
