<svg width="16" height="16" viewBox="0 0 16 16" fill="none" xmlns="http://www.w3.org/2000/svg">
<path d="M8.66634 3.33325V4.66659M8.66634 11.3333V12.6666M8.66634 7.33325V8.66659M1.33301 5.99992C1.86344 5.99992 2.37215 6.21063 2.74722 6.5857C3.12229 6.96078 3.33301 7.46949 3.33301 7.99992C3.33301 8.53035 3.12229 9.03906 2.74722 9.41413C2.37215 9.78921 1.86344 9.99992 1.33301 9.99992V11.3333C1.33301 11.6869 1.47348 12.026 1.72353 12.2761C1.97358 12.5261 2.31272 12.6666 2.66634 12.6666H13.333C13.6866 12.6666 14.0258 12.5261 14.2758 12.2761C14.5259 12.026 14.6663 11.6869 14.6663 11.3333V9.99992C14.1359 9.99992 13.6272 9.78921 13.2521 9.41413C12.8771 9.03906 12.6663 8.53035 12.6663 7.99992C12.6663 7.46949 12.8771 6.96078 13.2521 6.5857C13.6272 6.21063 14.1359 5.99992 14.6663 5.99992V4.66659C14.6663 4.31296 14.5259 3.97382 14.2758 3.72378C14.0258 3.47373 13.6866 3.33325 13.333 3.33325H2.66634C2.31272 3.33325 1.97358 3.47373 1.72353 3.72378C1.47348 3.97382 1.33301 4.31296 1.33301 4.66659V5.99992Z" stroke="#F4F4F5" stroke-width="1.33" stroke-linecap="round" stroke-linejoin="round"/>
</svg>
