<svg width="12" height="16" viewBox="0 0 12 16" fill="none" xmlns="http://www.w3.org/2000/svg">
<path d="M7.33464 1.19458V3.86125C7.33464 4.21487 7.47511 4.55401 7.72516 4.80406C7.97521 5.0541 8.31435 5.19458 8.66797 5.19458H11.3346M8.0013 1.19458H2.0013C1.64768 1.19458 1.30854 1.33506 1.05849 1.5851C0.808444 1.83515 0.667969 2.17429 0.667969 2.52791V13.1946C0.667969 13.5482 0.808444 13.8873 1.05849 14.1374C1.30854 14.3874 1.64768 14.5279 2.0013 14.5279H10.0013C10.3549 14.5279 10.6941 14.3874 10.9441 14.1374C11.1942 13.8873 11.3346 13.5482 11.3346 13.1946V4.52791L8.0013 1.19458Z" stroke="#18181B" stroke-width="1.33" stroke-linecap="round" stroke-linejoin="round"/>
</svg>
