<svg width="14" height="16" viewBox="0 0 14 16" fill="none" xmlns="http://www.w3.org/2000/svg">
<path d="M1.66699 9.33328C1.54083 9.33371 1.41714 9.29833 1.31029 9.23126C1.20344 9.16419 1.11781 9.06818 1.06335 8.95438C1.0089 8.84058 0.987849 8.71367 1.00265 8.58838C1.01746 8.4631 1.06751 8.34458 1.14699 8.24661L7.74699 1.44661C7.7965 1.38947 7.86396 1.35085 7.93831 1.3371C8.01266 1.32335 8.08947 1.33529 8.15614 1.37095C8.22281 1.40661 8.27538 1.46388 8.30521 1.53335C8.33504 1.60283 8.34037 1.68038 8.32032 1.75328L7.04032 5.76661C7.00258 5.86763 6.9899 5.97629 7.00338 6.08328C7.01686 6.19027 7.05609 6.2924 7.11771 6.3809C7.17933 6.46939 7.2615 6.54162 7.35717 6.59139C7.45284 6.64115 7.55915 6.66696 7.66699 6.66661H12.3337C12.4598 6.66618 12.5835 6.70156 12.6904 6.76863C12.7972 6.8357 12.8828 6.93171 12.9373 7.04551C12.9917 7.15931 13.0128 7.28622 12.998 7.41151C12.9832 7.53679 12.9331 7.65531 12.8537 7.75328L6.25365 14.5533C6.20415 14.6104 6.13668 14.649 6.06233 14.6628C5.98798 14.6765 5.91117 14.6646 5.8445 14.6289C5.77783 14.5933 5.72526 14.536 5.69543 14.4665C5.6656 14.3971 5.66027 14.3195 5.68032 14.2466L6.96032 10.2333C6.99806 10.1323 7.01074 10.0236 6.99726 9.91661C6.98378 9.80962 6.94455 9.70749 6.88293 9.61899C6.82131 9.5305 6.73914 9.45827 6.64347 9.40851C6.5478 9.35874 6.44149 9.33293 6.33365 9.33328H1.66699Z" stroke="#FAFAFA" stroke-width="1.2" stroke-linecap="round" stroke-linejoin="round"/>
</svg>
