<svg width="53" height="17" viewBox="0 0 53 17" fill="none" xmlns="http://www.w3.org/2000/svg">
<path fill-rule="evenodd" clip-rule="evenodd" d="M6.30446 2.43945H2.21809C1.93846 2.43945 1.70063 2.64269 1.65702 2.91865L0.0042867 13.3973C-0.0285628 13.6041 0.131566 13.7905 0.3413 13.7905H2.29217C2.57181 13.7905 2.80963 13.5873 2.85324 13.3108L3.299 10.4845C3.342 10.2078 3.58041 10.0048 3.85946 10.0048H5.15307C7.8449 10.0048 9.39834 8.70216 9.80426 6.12092C9.98704 4.99165 9.812 4.10433 9.28304 3.48273C8.70236 2.80057 7.67208 2.43945 6.30446 2.43945ZM6.77591 6.26665C6.55249 7.73298 5.43212 7.73299 4.34883 7.73299H3.73219L4.16479 4.99442C4.19048 4.82906 4.33387 4.70712 4.50119 4.70712H4.78381C5.52174 4.70712 6.21791 4.70712 6.57765 5.12769C6.79195 5.37877 6.85776 5.7515 6.77591 6.26665ZM18.5196 6.21964H16.5627C16.396 6.21964 16.252 6.34158 16.2262 6.50721L16.1397 7.05443L16.0028 6.85617C15.5792 6.24121 14.6346 6.03576 13.6917 6.03576C11.5291 6.03576 9.68232 7.67354 9.32258 9.97107C9.13566 11.1169 9.40139 12.2127 10.0515 12.977C10.6479 13.6796 11.5012 13.9725 12.5163 13.9725C14.2586 13.9725 15.225 12.852 15.225 12.852L15.1376 13.3959C15.1047 13.6039 15.2648 13.7902 15.4733 13.7902H17.2361C17.5164 13.7902 17.7529 13.587 17.7971 13.3105L18.8548 6.61284C18.8882 6.40684 18.7287 6.21964 18.5196 6.21964ZM15.7918 10.0283C15.603 11.1462 14.7157 11.8967 13.5842 11.8967C13.0159 11.8967 12.5616 11.7145 12.2702 11.3691C11.981 11.0262 11.8709 10.5379 11.963 9.9943C12.1394 8.88576 13.0417 8.11098 14.156 8.11098C14.7115 8.11098 15.1633 8.29541 15.4609 8.64381C15.7589 8.99581 15.8773 9.48689 15.7918 10.0283ZM26.9751 6.21936H28.9416C29.217 6.21936 29.3777 6.52823 29.2212 6.75414L22.6808 16.1948C22.5749 16.3477 22.4005 16.4387 22.2141 16.4387H20.25C19.9735 16.4387 19.812 16.1273 19.9721 15.9008L22.0086 13.0262L19.8427 6.6698C19.7678 6.44887 19.9309 6.21936 20.166 6.21936H22.0982C22.3493 6.21936 22.5708 6.38416 22.6432 6.62445L23.7927 10.4635L26.505 6.4685C26.6112 6.31255 26.7876 6.21936 26.9751 6.21936Z" fill="#253B80"/>
<path fill-rule="evenodd" clip-rule="evenodd" d="M48.2957 13.3969L49.9728 2.7266C49.9985 2.56097 50.142 2.43903 50.3088 2.43848H52.1968C52.4053 2.43848 52.5654 2.6254 52.5325 2.83223L50.8786 13.3103C50.8355 13.5869 50.5977 13.7901 50.3176 13.7901H48.6314C48.4229 13.7901 48.2628 13.6037 48.2957 13.3969ZM35.4521 2.43903H31.365C31.086 2.43903 30.8482 2.64227 30.8045 2.91822L29.1518 13.3969C29.1189 13.6037 29.279 13.7901 29.4877 13.7901H31.5848C31.7797 13.7901 31.9465 13.648 31.9769 13.4544L32.4458 10.4841C32.489 10.2073 32.7273 10.0044 33.0063 10.0044H34.2993C36.9917 10.0044 38.5449 8.70173 38.951 6.1205C39.1344 4.99123 38.9582 4.1039 38.4295 3.48231C37.8491 2.80015 36.8197 2.43903 35.4521 2.43903ZM35.9235 6.26622C35.7007 7.73256 34.5802 7.73256 33.4963 7.73256H32.8802L33.3135 4.99399C33.3392 4.82864 33.4814 4.7067 33.6492 4.7067H33.9318C34.6693 4.7067 35.3661 4.7067 35.7255 5.12727C35.9401 5.37834 36.0054 5.75108 35.9235 6.26622ZM47.6661 6.21922H45.7106C45.5425 6.21922 45.3998 6.34116 45.3747 6.50679L45.2881 7.05401L45.1507 6.85574C44.7271 6.24078 43.7831 6.03534 42.8402 6.03534C40.6776 6.03534 38.8313 7.67311 38.4716 9.97065C38.2852 11.1165 38.5498 12.2123 39.1999 12.9766C39.7975 13.6792 40.6497 13.972 41.6647 13.972C43.407 13.972 44.3732 12.8516 44.3732 12.8516L44.2861 13.3955C44.2532 13.6035 44.4133 13.7898 44.6231 13.7898H46.3851C46.6641 13.7898 46.9019 13.5866 46.9455 13.3101L48.0038 6.61242C48.0361 6.40641 47.876 6.21922 47.6661 6.21922ZM44.9386 10.0279C44.7509 11.1458 43.8624 11.8963 42.7307 11.8963C42.1636 11.8963 41.7084 11.714 41.4167 11.3687C41.1275 11.0258 41.0188 10.5375 41.1098 9.99387C41.287 8.88534 42.1882 8.11055 43.3025 8.11055C43.8583 8.11055 44.3098 8.29498 44.6076 8.64339C44.9068 8.99539 45.0252 9.48647 44.9386 10.0279Z" fill="#179BD7"/>
</svg>
