<svg width="16" height="16" viewBox="0 0 16 16" fill="none" xmlns="http://www.w3.org/2000/svg">
<g clip-path="url(#clip0_241_1285)">
<path d="M13.333 1.99984V4.6665M14.6663 3.33317H11.9997M2.66634 11.3332V12.6665M3.33301 11.9998H1.99967M6.6243 10.3332C6.56478 10.1025 6.44453 9.89191 6.27605 9.72343C6.10757 9.55495 5.89702 9.43469 5.6663 9.37517L1.5763 8.32051C1.50652 8.3007 1.44511 8.25867 1.40138 8.2008C1.35765 8.14293 1.33398 8.07238 1.33398 7.99984C1.33398 7.9273 1.35765 7.85675 1.40138 7.79888C1.44511 7.74101 1.50652 7.69898 1.5763 7.67917L5.6663 6.62384C5.89693 6.56438 6.10743 6.44422 6.2759 6.27587C6.44438 6.10751 6.56468 5.8971 6.6243 5.66651L7.67897 1.57651C7.69857 1.50645 7.74056 1.44474 7.79851 1.40077C7.85647 1.35681 7.92722 1.33301 7.99997 1.33301C8.07271 1.33301 8.14346 1.35681 8.20142 1.40077C8.25938 1.44474 8.30136 1.50645 8.32097 1.57651L9.37497 5.66651C9.43449 5.89722 9.55474 6.10777 9.72322 6.27625C9.8917 6.44473 10.1023 6.56499 10.333 6.62451L14.423 7.67851C14.4933 7.69791 14.5553 7.73985 14.5995 7.79789C14.6437 7.85594 14.6677 7.92688 14.6677 7.99984C14.6677 8.0728 14.6437 8.14374 14.5995 8.20179C14.5553 8.25983 14.4933 8.30177 14.423 8.32117L10.333 9.37517C10.1023 9.43469 9.8917 9.55495 9.72322 9.72343C9.55474 9.89191 9.43449 10.1025 9.37497 10.3332L8.3203 14.4232C8.3007 14.4932 8.25871 14.5549 8.20075 14.5989C8.1428 14.6429 8.07205 14.6667 7.9993 14.6667C7.92656 14.6667 7.85581 14.6429 7.79785 14.5989C7.73989 14.5549 7.69791 14.4932 7.6783 14.4232L6.6243 10.3332Z" stroke="#09090B" stroke-width="1.33" stroke-linecap="round" stroke-linejoin="round"/>
</g>
<defs>
<clipPath id="clip0_241_1285">
<rect width="16" height="16" fill="white"/>
</clipPath>
</defs>
</svg>
