<svg width="16" height="17" viewBox="0 0 16 17" fill="none" xmlns="http://www.w3.org/2000/svg">
<g clip-path="url(#clip0_273_3963)">
<path d="M9.33464 2.19458V4.86125C9.33464 5.21487 9.47511 5.55401 9.72516 5.80406C9.97521 6.0541 10.3143 6.19458 10.668 6.19458H13.3346M10.0013 2.19458H4.0013C3.64768 2.19458 3.30854 2.33506 3.05849 2.5851C2.80844 2.83515 2.66797 3.17429 2.66797 3.52791V14.1946C2.66797 14.5482 2.80844 14.8873 3.05849 15.1374C3.30854 15.3874 3.64768 15.5279 4.0013 15.5279H12.0013C12.3549 15.5279 12.6941 15.3874 12.9441 15.1374C13.1942 14.8873 13.3346 14.5482 13.3346 14.1946V5.52791L10.0013 2.19458Z" stroke="#18181B" stroke-width="1.33" stroke-linecap="round" stroke-linejoin="round"/>
</g>
<defs>
<clipPath id="clip0_273_3963">
<rect width="16" height="16" fill="white" transform="translate(0 0.861328)"/>
</clipPath>
</defs>
</svg>
